<?xml version="1.0" encoding="iso-8859-1"?>
<!-- Generator: Adobe Illustrator 19.0.0, SVG Export Plug-In . SVG Version: 6.00 Build 0)  -->
<svg version="1.1" id="Capa_1" xmlns="http://www.w3.org/2000/svg" xmlns:xlink="http://www.w3.org/1999/xlink" x="0px" y="0px"
	 viewBox="0 0 428.4 428.4" style="enable-background:new 0 0 428.4 428.4;" xml:space="preserve">
<g>
	<path d="M420,90.4c-5.2-5.2-12-8.4-20-8.4h-16.4H294c0.4-1.2,0.4-2.8,0.4-4.4V56.4c0-7.6-3.2-14.8-8.4-20c-5.2-5.2-12-8.4-20-8.4
		H162.4c-7.6,0-14.8,3.2-20,8.4c-5.2,5.2-8.4,12-8.4,20v21.2c0,1.6,0,2.8,0.4,4.4H44.8H28.4c-7.6,0-14.8,3.2-20,8.4
		c-5.2,5.2-8.4,12-8.4,20v16.4v98v130.8c0,12.4,5.2,23.2,13.2,31.6c8,8,19.2,13.2,31.2,13.2h339.2c12.4,0,23.2-5.2,31.6-13.2
		c8-8,13.2-19.2,13.2-31.6V224.8v-98.4V110C428.4,102.4,425.2,95.2,420,90.4z M158.4,56.4c0-1.2,0.4-2.4,1.2-3.2s2-1.2,3.2-1.2
		h103.6c1.2,0,2.4,0.4,3.2,1.2c0.8,0.8,1.2,2,1.2,3.2v21.2c0,1.2-0.4,2.4-1.2,3.2c-1.2,0.8-2,1.2-3.2,1.2h-104c-1.2,0-2-0.4-2.8-1.2
		s-1.2-2-1.2-3.2V56.4z M24,126.4c0-5.6,2.4-10.8,6-14.4l0.4-0.4c3.6-3.6,8.8-5.6,14-5.6h118h104H384c5.6,0,10.8,2.4,14.4,6
		c3.6,3.6,6,8.8,6,14.4v98.4c0,1.2-0.4,2.4-1.2,3.2c-0.8,0.8-2,1.2-3.2,1.2H269.2V218c0-15.6-12.4-28-28-28h-52.8
		c-15.6,0-28,12.4-28,28v10h-132c-1.2,0-2.4-0.4-3.2-1.2l-0.4-0.4c-0.4-0.8-0.8-1.6-0.8-2.8V126.4z M239.6,221.2v38.4
		c0,2.8-2.4,5.6-5.6,5.6h-38.8c-2.8,0-5.6-2.4-5.6-5.6v-38.4c0-2.8,2.4-5.6,5.6-5.6H234C237.2,216,239.6,218.4,239.6,221.2z
		 M405.2,355.2h-0.8c0,5.6-2.4,10.8-6,14.4c-3.6,3.6-8.8,6-14.4,6H44.8c-5.6,0-10.8-2.4-14.4-6c-3.6-3.6-6-8.8-6-14.4V252.4
		c1.2,0.4,2.8,0.4,4.4,0.4h131.6v10c0,15.6,12.4,28,28,28h52.8c15.6,0,28-12.4,28-28v-10h131.6c1.6,0,2.8,0,4.4-0.4V355.2z"/>
</g>
<g>
</g>
<g>
</g>
<g>
</g>
<g>
</g>
<g>
</g>
<g>
</g>
<g>
</g>
<g>
</g>
<g>
</g>
<g>
</g>
<g>
</g>
<g>
</g>
<g>
</g>
<g>
</g>
<g>
</g>
</svg>
