<?xml version="1.0" standalone="no"?>
<!DOCTYPE svg PUBLIC "-//W3C//DTD SVG 20010904//EN"
 "http://www.w3.org/TR/2001/REC-SVG-20010904/DTD/svg10.dtd">
<svg version="1.0" xmlns="http://www.w3.org/2000/svg"
 width="300.000000pt" height="300.000000pt" viewBox="0 0 300.000000 300.000000"
 preserveAspectRatio="xMidYMid meet">
<metadata>
Created by potrace 1.15, written by Peter Selinger 2001-2017
</metadata>
<g transform="translate(0.000000,300.000000) scale(0.100000,-0.100000)"
fill="#000000" stroke="none">
<path d="M1275 2990 c-482 -75 -904 -382 -1120 -815 -59 -119 -102 -241 -131
-375 -15 -68 -19 -127 -19 -300 0 -173 4 -232 19 -300 66 -301 205 -558 416
-766 211 -210 462 -345 760 -410 68 -15 127 -19 300 -19 173 0 232 4 300 19
298 65 549 200 760 410 211 208 350 465 416 766 27 122 27 478 0 600 -65 298
-200 549 -409 760 -203 206 -453 343 -746 412 -99 23 -441 34 -546 18z m765
-550 l0 -210 -141 0 c-223 0 -232 -9 -233 -234 l-1 -141 190 -3 191 -2 -23
-203 c-12 -111 -22 -205 -23 -209 0 -5 -77 -8 -172 -8 l-171 0 4 -607 4 -608
-252 -3 -253 -2 0 610 0 610 -125 0 -125 0 0 210 0 210 124 0 124 0 5 203 c5
210 15 275 58 364 33 68 104 139 172 173 100 49 166 58 420 59 l227 1 0 -210z"/>
</g>
</svg>
