<?xml version="1.0" standalone="no"?>
<!DOCTYPE svg PUBLIC "-//W3C//DTD SVG 20010904//EN"
 "http://www.w3.org/TR/2001/REC-SVG-20010904/DTD/svg10.dtd">
<svg version="1.0" xmlns="http://www.w3.org/2000/svg" width="460.000000pt" height="488.000000pt" viewBox="0 0 460.000000 488.000000" preserveAspectRatio="xMidYMid meet">
<metadata>Created by potrace 1.15, written by Peter Selinger 2001-2017</metadata>
<g transform="translate(0.000000,488.000000) scale(0.100000,-0.100000)" fill="#ccc" stroke="none">
<path d="M2270 4815 c-627 -61 -1115 -288 -1537 -716 -132 -134 -199 -216 -294 -358 -290 -436 -411 -962 -358 -1554 74 -828 556 -1546 1272 -1897 268 -131 535 -205 872 -240 126 -14 509 -14 635 -1 448 47 853 192 1195 429 134 92 316 256 427 384 41 48 47 60 36 71 -7 7 -71 66 -142 131 l-128 119 -97 -100 c-312 -323 -641 -519 -1036 -617 -425 -105 -941 -77 -1339 73 -440 166 -821 495 -1049 906 -117 211 -199 477 -224 731 -10 102 -10 376 0 478 91 909 780 1610 1732 1762 163 26 486 24 662 -4 243 -39 405 -89 608 -187 139 -67 297 -168 407 -260 l67 -56 -82 -77 c-45 -42 -112 -105 -148 -140 l-66 -62 -111 74 c-288 192 -592 290 -942 303 -451 16 -822 -98 -1136 -351 -505 -405 -710 -1107 -507 -1731 128 -394 439 -749 813 -927 406 -195 968 -222 1388 -69 196 71 357 177 508 333 247 256 379 589 400 1016 l7 132 -676 0 -677 0 0 -190 0 -190 456 0 456 0 -6 -34 c-33 -176 -145 -368 -296 -509 -213 -197 -505 -292 -839 -273 -200 12 -354 52 -525 137 -344 171 -582 481 -660 863 -21 99 -21 322 -1 424 69 339 265 617 561 792 187 111 350 163 557 180 395 32 801 -125 1129 -438 43 -41 82 -72 87 -70 6 1 144 127 308 278 588 544 554 511 541 529 -167 218 -388 418 -613 554 -333 202 -676 312 -1090 351 -187 18 -370 18 -545 1z"/>
</g>
</svg>
