<?xml version="1.0" encoding="iso-8859-1"?>
<!-- Generator: Adobe Illustrator 19.0.0, SVG Export Plug-In . SVG Version: 6.00 Build 0)  -->
<svg version="1.1" id="Capa_1" xmlns="http://www.w3.org/2000/svg" xmlns:xlink="http://www.w3.org/1999/xlink" x="0px" y="0px"viewBox="0 0 511.994 511.994" style="enable-background:new 0 0 511.994 511.994;" xml:space="preserve"><g><g>
		<path d="M231.848,15.34H0v481.313h339.644V125.696L231.848,15.34z M237.752,50.544l67.506,69.115h-67.506V50.544z M319.264,476.274H20.38V35.72h196.993v104.318h101.892V476.274z"/></g></g><g><g>
		<path d="M476.334,112.006v-16.56c0-27.386-22.28-49.673-49.673-49.673s-49.673,22.286-49.673,49.673v310.763c0,23.896,16.965,43.883,39.48,48.602v31.65h20.38v-31.65c22.515-4.713,39.48-24.706,39.48-48.602V132.385h15.286v123.608h20.38V112.006H476.334z M455.961,406.215c0,16.154-13.145,29.293-29.293,29.293c-16.148,0-29.293-13.139-29.293-29.293v-273.83h58.586V406.215z M455.961,112.006h-58.586v-16.56c0-16.148,13.139-29.293,29.293-29.293c16.148,0,29.293,13.139,29.293,29.293V112.006z"
			/></g></g><g><g>
		<rect x="66.226" y="95.845" width="112.079" height="20.38"/></g></g><g><g>
		<rect x="66.226" y="178.897" width="205.475" height="20.38"/></g></g><g><g>
		<rect x="66.226" y="234.195" width="205.475" height="20.38"/></g></g><g><g>
		<rect x="66.226" y="289.468" width="205.475" height="20.38"/></g></g>
</svg>